<?xml version="1.0" encoding="utf-8"?>
<!-- Generator: Adobe Illustrator 22.0.1, SVG Export Plug-In . SVG Version: 6.00 Build 0)  -->
<svg version="1.1" id="Layer_1" xmlns="http://www.w3.org/2000/svg" xmlns:xlink="http://www.w3.org/1999/xlink" x="0px" y="0px"
	 viewBox="0 0 300 100" style="enable-background:new 0 0 300 100;" xml:space="preserve">
<style type="text/css">
	.st0{fill:#919191;}
	.st1{fill:#6C63AC;}
</style>
<g>
	<path class="st0" d="M47.6,40.8c2.1,1.1,3.1,2.5,3.1,4.2c0,0.9-0.3,1.6-0.8,2.3c-0.5,0.7-1.2,1-2,1c-0.6,0-1.2-0.1-1.6-0.3
		c-0.4-0.2-0.8-0.4-1.2-0.7c-0.4-0.3-0.8-0.5-1.1-0.8c-0.4-0.2-1-0.4-1.8-0.5c-0.8-0.2-1.4-0.2-1.9-0.2c-3,0-5.4,0.9-7,2.8
		c-1.7,1.9-2.6,4.3-2.6,7.3c0,2.9,0.9,5.3,2.6,7.2c1.7,1.9,3.9,2.8,6.6,2.8c2,0,3.4-0.2,4.4-0.7c0.2-0.1,0.6-0.3,1-0.6
		c0.4-0.3,0.8-0.5,1.2-0.7c0.4-0.2,0.8-0.2,1.3-0.2c1,0,1.8,0.3,2.4,1C50.7,65.2,51,66,51,67c0,1-0.6,1.9-1.7,2.7
		c-1.1,0.8-2.6,1.5-4.4,2c-1.8,0.5-3.8,0.8-5.9,0.8c-3.1,0-5.8-0.7-8.1-2.2c-2.3-1.4-4.2-3.4-5.4-6c-1.3-2.5-1.9-5.4-1.9-8.5
		c0-3.2,0.7-6.1,2-8.6c1.3-2.5,3.2-4.5,5.6-5.9c2.4-1.4,5.1-2.1,8.2-2.1C42.7,39.2,45.5,39.7,47.6,40.8z"/>
	<path class="st0" d="M63,70.9c-0.7,0.7-1.6,1-2.6,1c-1,0-1.8-0.3-2.5-1c-0.7-0.7-1-1.6-1-2.6V31.2c0-1,0.3-1.9,1-2.6
		c0.7-0.7,1.6-1,2.6-1c1,0,1.8,0.4,2.5,1c0.7,0.7,1,1.6,1,2.6v37.1C64.1,69.3,63.7,70.2,63,70.9z"/>
	<path class="st0" d="M72.7,35.2c-0.6-0.4-0.8-1.2-0.8-2.3v-1.1c0-1.1,0.3-1.9,0.9-2.3c0.6-0.4,1.6-0.7,2.9-0.7
		c1.4,0,2.4,0.2,2.9,0.7c0.6,0.4,0.8,1.2,0.8,2.3v1.1c0,1.2-0.3,2-0.9,2.4c-0.6,0.4-1.6,0.6-3,0.6C74.2,35.9,73.3,35.7,72.7,35.2z
		 M78.2,70.9c-0.7,0.7-1.5,1-2.6,1c-1,0-1.9-0.3-2.6-1c-0.7-0.7-1-1.6-1-2.6V43.5c0-1,0.3-1.9,1-2.6c0.7-0.7,1.5-1.1,2.6-1.1
		c1,0,1.9,0.4,2.6,1.1c0.7,0.7,1,1.6,1,2.6v24.8C79.2,69.3,78.9,70.2,78.2,70.9z"/>
	<path class="st0" d="M114.3,57.4c-0.7,0.6-1.6,0.9-2.5,0.9H92c0.5,2.4,1.6,4.2,3.3,5.6c1.7,1.3,3.7,2,5.8,2c1.6,0,2.9-0.2,3.8-0.5
		c0.9-0.3,1.6-0.6,2.2-1s0.9-0.6,1.1-0.7c0.7-0.4,1.4-0.5,2-0.5c0.8,0,1.6,0.3,2.2,0.9c0.6,0.6,0.9,1.3,0.9,2.1
		c0,1.1-0.6,2.1-1.7,2.9c-1.1,0.9-2.6,1.7-4.5,2.3c-1.9,0.6-3.8,1-5.7,1c-3.4,0-6.3-0.7-8.8-2.1c-2.5-1.4-4.4-3.3-5.8-5.8
		s-2-5.2-2-8.3c0-3.4,0.7-6.5,2.2-9.1c1.4-2.6,3.3-4.6,5.7-6c2.4-1.4,4.9-2.1,7.6-2.1c2.6,0,5.1,0.7,7.5,2.2s4.2,3.4,5.6,5.8
		c1.4,2.4,2.1,5.1,2.1,7.9C115.4,56.1,115,56.8,114.3,57.4z M92,52.3h15.7v-0.4c-0.2-1.7-1-3.1-2.5-4.3c-1.5-1.2-3.2-1.8-5-1.8
		C95.6,45.8,92.9,48,92,52.3z"/>
	<path class="st0" d="M147,42.8c1.6,2.4,2.3,5.8,2.3,10.1v15.4c0,1-0.3,1.9-1,2.6c-0.7,0.7-1.5,1-2.6,1s-1.9-0.3-2.6-1
		c-0.7-0.7-1-1.6-1-2.6V52.9c0-2.2-0.5-3.9-1.4-5.2c-0.9-1.3-2.5-1.9-4.7-1.9c-2.3,0-4.1,0.7-5.5,2c-1.3,1.3-2,3-2,5.1v15.4
		c0,1-0.3,1.9-1,2.6c-0.7,0.7-1.5,1-2.6,1c-1,0-1.9-0.3-2.6-1c-0.7-0.7-1-1.6-1-2.6V43.5c0-1,0.3-1.9,1-2.6c0.7-0.7,1.5-1.1,2.6-1.1
		c1,0,1.9,0.4,2.6,1.1c0.7,0.7,1,1.6,1,2.6v1c1.1-1.4,2.5-2.7,4.2-3.7c1.7-1,3.6-1.6,5.7-1.6C142.6,39.2,145.5,40.4,147,42.8z"/>
	<path class="st0" d="M174.2,65.9c0.5,0.5,0.7,1.3,0.7,2.1c0,1.1-0.6,2-1.8,2.7c-1.2,0.7-2.5,1.1-4,1.1c-2.5,0-4.6-0.5-6.3-1.6
		c-1.7-1.1-2.6-3.3-2.6-6.8V47h-2.8c-1,0-1.8-0.3-2.4-1c-0.6-0.6-1-1.4-1-2.4c0-0.9,0.3-1.7,1-2.3c0.6-0.6,1.4-0.9,2.4-0.9h2.8v-3.8
		c0-1,0.4-1.9,1.1-2.6c0.7-0.7,1.6-1,2.6-1c1,0,1.8,0.4,2.5,1c0.7,0.7,1,1.6,1,2.6v3.8h4.3c1,0,1.8,0.3,2.4,1c0.6,0.6,1,1.4,1,2.4
		c0,0.9-0.3,1.7-1,2.3c-0.6,0.6-1.4,0.9-2.4,0.9h-4.3v16.3c0,0.8,0.2,1.5,0.7,1.8c0.4,0.4,1,0.6,1.8,0.6c0.3,0,0.8-0.1,1.3-0.2
		c0.5-0.2,0.9-0.3,1.4-0.3C173.2,65.1,173.7,65.4,174.2,65.9z"/>
	<path class="st1" d="M201.4,47.2c1.7,1.2,3,2.8,3.9,4.7c0.9,1.9,1.4,4,1.4,6.2c0,2.9-0.7,5.5-2,7.6c-1.3,2.2-3.2,3.9-5.6,5
		c-2.4,1.2-5.2,1.7-8.4,1.7c-1.4,0-2.9-0.2-4.3-0.5c-1.4-0.4-2.7-0.8-3.8-1.4c-1.5-0.8-2.2-1.9-2.2-3.2c0-1,0.3-1.8,1-2.6
		c0.7-0.8,1.5-1.2,2.5-1.2c0.8,0,1.7,0.3,2.6,0.9c1.7,1.3,3.6,2,5.7,2c1.2,0,2.4-0.3,3.5-0.9c1.1-0.6,2-1.5,2.7-2.7
		c0.7-1.2,1-2.5,1-4c0-2.2-0.7-3.8-2-5s-2.9-1.8-4.7-1.8c-0.8,0-1.5,0.1-2.1,0.2s-1,0.3-1.1,0.3c-1,0.3-1.9,0.5-2.6,0.5
		c-0.9,0-1.6-0.3-2.1-0.9c-0.5-0.6-0.8-1.4-0.8-2.3c0-0.6,0.1-1.1,0.3-1.5c0.2-0.4,0.5-0.9,1-1.4l9.3-10.1H183c-1,0-1.8-0.3-2.4-1
		c-0.6-0.6-1-1.4-1-2.4c0-0.9,0.3-1.7,1-2.3c0.6-0.6,1.4-0.9,2.4-0.9h18.4c1.2,0,2.1,0.3,2.8,1c0.6,0.7,1,1.5,1,2.6
		c0,1-0.5,1.9-1.4,2.9l-8,8.9C197.8,45.3,199.7,46,201.4,47.2z"/>
	<path class="st1" d="M232.7,46.6c2,1.3,3.7,3,4.9,5.1c1.3,2.1,1.9,4.5,1.9,6.9c0,2.5-0.6,4.9-1.9,7c-1.3,2.1-3,3.8-5.1,5.1
		c-2.1,1.2-4.5,1.9-7,1.9c-2.8,0-5.2-0.8-7.4-2.3s-3.8-3.6-5-6.1s-1.7-5.2-1.7-8c0-2.9,0.5-6.1,1.5-9.6c1-3.5,2.9-6.8,5.6-9.9
		c2.7-3.1,6.4-5.3,11-6.7c0.5-0.1,0.9-0.2,1.4-0.2c1,0,1.9,0.3,2.6,0.8c0.7,0.5,1,1.4,1,2.6c0,0.9-0.3,1.6-0.9,2.3
		c-0.6,0.7-1.3,1.1-2.3,1.4c-2.5,0.7-4.9,2-7,3.8c-2.1,1.8-3.7,4-4.7,6.6c2-1.7,4.3-2.6,6.8-2.6C228.7,44.7,230.7,45.3,232.7,46.6z
		 M230.4,63.8c1.3-1.4,2-3.1,2-5.2c0-2.1-0.7-3.8-2-5.2c-1.3-1.4-2.9-2.1-4.8-2.1c-1.9,0-3.5,0.7-4.8,2.1c-1.3,1.4-2,3.1-2,5.2
		c0,2.1,0.7,3.8,2,5.2s2.9,2.1,4.8,2.1C227.5,65.9,229.1,65.2,230.4,63.8z"/>
	<path class="st1" d="M251.8,69.8c-2.4-1.8-4.3-4.3-5.5-7.6c-1.2-3.3-1.9-7-1.9-11.3c0-4.3,0.6-8,1.9-11.3c1.2-3.3,3.1-5.8,5.5-7.6
		c2.4-1.8,5.3-2.7,8.7-2.7s6.2,0.9,8.7,2.7c2.4,1.8,4.2,4.3,5.5,7.6c1.2,3.3,1.9,7,1.9,11.3c0,4.3-0.6,8.1-1.9,11.3
		c-1.2,3.3-3.1,5.8-5.5,7.6c-2.4,1.8-5.3,2.7-8.7,2.7S254.2,71.6,251.8,69.8z M266.5,61.6c1.5-2.4,2.2-6,2.2-10.7
		c0-4.7-0.7-8.3-2.2-10.7c-1.5-2.4-3.5-3.7-6-3.7c-2.6,0-4.6,1.2-6,3.7c-1.5,2.4-2.2,6-2.2,10.7c0,4.7,0.7,8.3,2.2,10.7
		s3.5,3.7,6,3.7C263,65.3,265,64.1,266.5,61.6z"/>
</g>
</svg>
